<?xml version="1.0" standalone="no"?><!DOCTYPE svg PUBLIC "-//W3C//DTD SVG 1.1//EN" "http://www.w3.org/Graphics/SVG/1.1/DTD/svg11.dtd"><svg t="1668775824207" class="icon" viewBox="0 0 1024 1024" version="1.1" xmlns="http://www.w3.org/2000/svg" p-id="4678" xmlns:xlink="http://www.w3.org/1999/xlink" width="48" height="48"><path d="M512 512m-512 0a512 512 0 1 0 1024 0 512 512 0 1 0-1024 0Z" fill="#7FA7DA" p-id="4679"></path><path d="M281.3 637.1c-0.1-1.8-0.2-3.5-0.2-5.3 0-31 21.4-57.7 52.6-70.6 2.3-0.9 4.6-1.8 6.9-2.6 19.6-7.8 36.4-22.7 42.7-39.8 9.2-25.4-8-45.9-38.5-45.9-7.7 0.1-15.3 1.3-22.6 3.6h-0.1c-44 12.6-80.6 40.2-102.7 76.5-13.2 21.7-21.2 46.4-22.2 72.5 26.4-2 55.2 1.8 84.1 11.6zM648.6 227.5c-33.2-0.1-65.8 8.5-94.7 24.9-50.2 28.9-83.9 79.8-83.9 137.8v241.6c0 39-34.2 71.4-78.9 77.6 21.2 23.3 36.7 49.1 45.7 75 11.5-3.9 22.6-8.9 33.2-14.9 50.3-28.7 84-79.7 84-137.9V390.3c0-43.5 42.2-78.8 94.4-78.8s94.5 35.3 94.5 78.8c0 32.2-23.3 60-56.6 72.1-21.6 7.3-39.2 22.8-45.9 41.2-9.2 25.3 7.9 45.7 38.1 45.7 7-0.1 13.9-1.2 20.6-3.1l3.3-0.9c42.3-11.9 78.7-39 102-76.2 14.7-23.6 22.5-50.9 22.5-78.8 0.1-89.8-80-162.8-178.3-162.8z" fill="#FFFFFF" p-id="4680"></path><path d="M375.5 710.5c-50.1 0-91-32.4-94.3-73.4-28.8-9.8-57.6-13.6-84.1-11.5-0.1 2-0.1 4.1-0.1 6.1 0 89.8 80.1 162.8 178.4 162.8 20.9 0.1 41.7-3.4 61.4-10-9-25.9-24.5-51.7-45.7-75-5.1 0.7-10.3 1-15.6 1z" fill="#FFFFFF" opacity=".4" p-id="4681"></path></svg>